:SAMPLES-PER-SECOND 30
:FULLY-SPECIFIED
:DEGREES
77
root  4.82999 38.5336 -29.6029 57.1394 -84.9179 -61.174
RightUpLeg  21.478 -15.3735 -6.74257
RightLeg  13.9343 -0.44412 4.02617
RightFoot  -16.8416 0.433482 11.3214
RightToes  -1.74624e-010 0 -3.6325e-017
Spine  0.0001285 3.06192 13.0702
Spine1  12.8261 5.2978 -7.04015
HEad  -6.27443 10.1814 -6.65443
LeftShoulder1  8.07228 -11.41 -47.2254
LeftArm  -9.31025 25.1818 -27.6307
LeftForeArm  24.4852 -13.892 -4.64219
LeftHand  -0.244104 0.0205437 5.32207
RightShoulder  6.48463 9.90734 42.0811
RightArm  9.72137 -2.97172 30.4934
RightForeArm  -4.63403 23.7274 5.62372
RightHand  -1.1349 2.47453 -16.8662
LeftUpLeg  -18.5748 6.47481 -1.17911
LeftLeg  1.76619 32.9636 -7.28322
LeftFoot  1.77112 -1.11891 9.62205
LeftToes  -2.54691e-011 4.12133e-011 -4.68171e-012
78
root  3.10053 38.3722 -29.3274 27.7105 -84.4612 -31.7742
RightUpLeg  22.4828 -21.5112 -12.1563
RightLeg  19.8614 7.0608 3.15483
RightFoot  -14.3994 0.339941 17.4683
RightToes  -1.74624e-010 0 -3.6325e-017
Spine  -0.490459 3.21128 9.32644
Spine1  12.4664 4.99995 -5.79405
HEad  -5.7106 10.848 -5.69624
LeftShoulder1  8.18475 -11.4539 -47.7514
LeftArm  -9.67648 24.9574 -26.638
LeftForeArm  24.2893 -12.5594 -4.78934
LeftHand  -0.244104 0.0205437 5.32207
RightShoulder  6.61104 9.90434 42.9672
RightArm  5.65065 -5.45123 30.3133
RightForeArm  -2.30742 16.8421 6.48455
RightHand  -1.1818 2.86684 -16.744
LeftUpLeg  -20.5451 12.4262 -7.26939
LeftLeg  10.387 23.9532 -1.02988
LeftFoot  2.05116 -1.86896 15.774
LeftToes  -2.54691e-011 4.12133e-011 -4.68171e-012
79
root  1.49996 38.3952 -28.9762 6.61205 -81.9116 -10.8419
RightUpLeg  18.9393 -18.7346 -12.6659
RightLeg  29.8589 4.66614 2.49341
RightFoot  -6.09766 -1.00582 21.3119
RightToes  -1.74624e-010 0 -3.6325e-017
Spine  -0.136086 2.93523 6.63443
Spine1  11.6231 4.50754 -5.10452
HEad  -5.49313 10.8394 -4.92304
LeftShoulder1  8.32868 -11.6148 -48.0801
LeftArm  -10.0493 23.6317 -25.9506
LeftForeArm  24.4948 -10.7252 -4.94973
LeftHand  -0.244104 0.0205437 5.32207
RightShoulder  6.64381 9.85783 43.3515
RightArm  -3.43285 -8.64746 30.7484
RightForeArm  4.26775 10.1235 7.74253
RightHand  -1.14812 2.74929 -16.4997
LeftUpLeg  -20.7179 16.4085 -12.6144
LeftLeg  15 16.1381 3.27078
LeftFoot  0.202918 -1.84331 18.0264
LeftToes  -2.54691e-011 4.12133e-011 -4.68171e-012
80
root  0.108175 38.5079 -28.5988 -1.86435 -79.281 -2.40521
RightUpLeg  11.7932 -13.5557 -11.4564
RightLeg  42.3139 1.99168 1.71281
RightFoot  5.81582 -2.86947 19.3626
RightToes  -1.74624e-010 0 -3.6325e-017
Spine  0.668447 2.84904 5.0542
Spine1  11.1773 4.45971 -5.3393
HEad  -5.72436 10.4498 -4.81177
LeftShoulder1  8.40591 -11.766 -48.0458
LeftArm  -10.4096 21.3323 -25.9985
LeftForeArm  24.9254 -9.25113 -5.0137
LeftHand  -0.244104 0.0205437 5.32207
RightShoulder  6.67492 9.93297 43.3089
RightArm  -7.34442 -12.1822 31.7344
RightForeArm  6.28098 6.21214 7.09005
RightHand  -0.982163 1.80919 -15.9401
LeftUpLeg  -18.73 15.0862 -14.3059
LeftLeg  16.7281 15.1873 4.38756
LeftFoot  -2.72395 -1.32024 17.5676
LeftToes  -2.54691e-011 4.12133e-011 -4.68171e-012
81
root  -1.13233 38.5976 -28.2372 -7.09825 -77.1105 3.02965
RightUpLeg  3.5998 -8.5344 -10.4893
RightLeg  53.7302 1.46789 1.76678
RightFoot  13.2621 -3.10193 14.494
RightToes  -1.74624e-010 0 -3.6325e-017
Spine  1.42109 2.93027 3.45476
Spine1  11.4164 4.47083 -5.68404
HEad  -6.33543 10.2633 -5.37308
LeftShoulder1  8.42322 -11.7926 -48.0615
LeftArm  -10.3291 18.822 -26.2843
LeftForeArm  25.3319 -9.47719 -5.10909
LeftHand  -0.244104 0.0205437 5.32207
RightShoulder  6.75523 10.1146 43.2418
RightArm  -7.40147 -15.3105 32.3772
RightForeArm  7.46096 5.11692 6.80344
RightHand  -0.854313 1.02607 -15.5392
LeftUpLeg  -16.3106 12.9114 -14.9068
LeftLeg  17.3072 15.742 3.77403
LeftFoot  -5.07957 -0.902117 16.9429
LeftToes  -2.54691e-011 4.12133e-011 -4.68171e-012
82
root  -2.39718 38.8252 -27.8122 -6.91962 -74.0685 2.9832
RightUpLeg  -3.40022 -5.35786 -9.51734
RightLeg  61.3059 0.775365 0.990985
RightFoot  13.8348 -2.25321 10.4484
RightToes  -1.74624e-010 0 -3.6325e-017
Spine  1.8654 2.37352 2.7645
Spine1  11.5661 3.74439 -5.30436
HEad  -7.15477 10.3495 -6.17386
LeftShoulder1  8.45595 -11.7417 -48.4121
LeftArm  -9.0969 16.4914 -26.3435
LeftForeArm  25.5973 -11.6671 -5.24609
LeftHand  -0.244104 0.0205437 5.32207
RightShoulder  6.73651 10.1088 43.1343
RightArm  -5.45584 -18.0096 32.5336
RightForeArm  9.16923 6.51921 7.23731
RightHand  -0.867924 1.08792 -15.6338
LeftUpLeg  -13.0963 9.25913 -14.4067
LeftLeg  16.515 16.7899 2.56637
LeftFoot  -6.37878 -0.698973 16.8933
LeftToes  -2.54691e-011 4.12133e-011 -4.68171e-012
83
root  -3.61489 39.1775 -27.3189 -3.62003 -69.8759 -0.33165
RightUpLeg  -9.06618 -3.54874 -8.33347
RightLeg  64.2517 -0.426636 -1.54474
RightFoot  11.2205 -1.52088 8.00612
RightToes  -1.74624e-010 0 -3.6325e-017
Spine  2.4543 1.27992 3.23015
Spine1  11.233 2.44989 -4.50376
HEad  -7.92823 10.2468 -6.77517
LeftShoulder1  8.50779 -11.7162 -48.7925
LeftArm  -6.37329 14.1621 -26.6209
LeftForeArm  25.3332 -14.9751 -5.01519
LeftHand  -0.244104 0.0205437 5.32207
RightShoulder  6.50642 9.78409 42.6484
RightArm  -1.9693 -20.8456 32.6839
RightForeArm  8.81334 10.1279 7.64218
RightHand  -0.876103 1.19534 -15.5251
LeftUpLeg  -9.26196 5.21922 -13.3622
LeftLeg  14.3162 16.9851 1.24701
LeftFoot  -7.15091 -0.575173 16.7626
LeftToes  -2.54691e-011 4.12133e-011 -4.68171e-012
